<?xml version="1.0" encoding="utf-8"?>
<!DOCTYPE svg PUBLIC "-//W3C//DTD SVG 1.1//EN" "http://www.w3.org/Graphics/SVG/1.1/DTD/svg11.dtd">
<svg version="1.1" xmlns="http://www.w3.org/2000/svg" xmlns:xlink="http://www.w3.org/1999/xlink" width="160" height="32" viewBox="0 0 160 32">
	<defs>
		<g id="icon-spinner">
			<path opacity=".1" d="M14 0 H18 V8 H14 z" transform="rotate(0 16 16)">
				<animate attributeName="opacity" from="1" to=".1" dur="1s" repeatCount="indefinite" begin="0"/>
			</path>
			<path opacity=".1" d="M14 0 H18 V8 H14 z" transform="rotate(45 16 16)">
				<animate attributeName="opacity" from="1" to=".1" dur="1s" repeatCount="indefinite" begin="0.125s"/>
			</path>
			<path opacity=".1" d="M14 0 H18 V8 H14 z" transform="rotate(90 16 16)">
				<animate attributeName="opacity" from="1" to=".1" dur="1s" repeatCount="indefinite" begin="0.25s"/>
			</path>
			<path opacity=".1" d="M14 0 H18 V8 H14 z" transform="rotate(135 16 16)">
				<animate attributeName="opacity" from="1" to=".1" dur="1s" repeatCount="indefinite" begin="0.375s"/>
			</path>
			<path opacity=".1" d="M14 0 H18 V8 H14 z" transform="rotate(180 16 16)">
				<animate attributeName="opacity" from="1" to=".1" dur="1s" repeatCount="indefinite" begin="0.5s"/>
			</path>
			<path opacity=".1" d="M14 0 H18 V8 H14 z" transform="rotate(225 16 16)">
				<animate attributeName="opacity" from="1" to=".1" dur="1s" repeatCount="indefinite" begin="0.675s"/>
			</path>
			<path opacity=".1" d="M14 0 H18 V8 H14 z" transform="rotate(270 16 16)">
				<animate attributeName="opacity" from="1" to=".1" dur="1s" repeatCount="indefinite" begin="0.75s"/>
			</path>
			<path opacity=".1" d="M14 0 H18 V8 H14 z" transform="rotate(315 16 16)">
				<animate attributeName="opacity" from="1" to=".1" dur="1s" repeatCount="indefinite" begin="0.875s"/>
			</path>
		</g>
		<g id="icon-remove">
			<path d="M6 32h20l2-22h-24zM20 4v-4h-8v4h-10v6l2-2h24l2 2v-6h-10zM18 4h-4v-2h4v2z"></path>
		</g>
		<g id="icon-blocked">
			<path d="M0 16c0 8.837 7.163 16 16 16s16-7.163 16-16-7.163-16-16-16c-8.837 0-16 7.163-16 16zM28 16c0 2.289-0.641 4.428-1.753 6.247l-16.494-16.494c1.82-1.112 3.959-1.753 6.247-1.753 6.627 0 12 5.373 12 12zM4 16c0-2.289 0.641-4.427 1.753-6.247l16.494 16.494c-1.82 1.112-3.959 1.753-6.247 1.753-6.627 0-12-5.373-12-12z"></path>
		</g>
		<g id="icon-close">
			<path d="M31.708 25.708c-0-0-0-0-0-0l-9.708-9.708 9.708-9.708c0-0 0-0 0-0 0.105-0.105 0.18-0.227 0.229-0.357 0.133-0.356 0.057-0.771-0.229-1.057l-4.586-4.586c-0.286-0.286-0.702-0.361-1.057-0.229-0.13 0.048-0.252 0.124-0.357 0.228 0 0-0 0-0 0l-9.708 9.708-9.708-9.708c-0-0-0-0-0-0-0.105-0.104-0.227-0.18-0.357-0.228-0.356-0.133-0.771-0.057-1.057 0.229l-4.586 4.586c-0.286 0.286-0.361 0.702-0.229 1.057 0.049 0.13 0.124 0.252 0.229 0.357 0 0 0 0 0 0l9.708 9.708-9.708 9.708c-0 0-0 0-0 0-0.104 0.105-0.18 0.227-0.229 0.357-0.133 0.355-0.057 0.771 0.229 1.057l4.586 4.586c0.286 0.286 0.702 0.361 1.057 0.229 0.13-0.049 0.252-0.124 0.357-0.229 0-0 0-0 0-0l9.708-9.708 9.708 9.708c0 0 0 0 0 0 0.105 0.105 0.227 0.18 0.357 0.229 0.356 0.133 0.771 0.057 1.057-0.229l4.586-4.586c0.286-0.286 0.362-0.702 0.229-1.057-0.049-0.13-0.124-0.252-0.229-0.357z"></path>
		</g>
		<g id="icon-checkmark">
			<path d="M27 4l-15 15-7-7-5 5 12 12 20-20z"></path>
		</g>
	</defs>

	<g fill="#000">
		<use xlink:href="#icon-remove" transform="translate(0 0)"></use>
		<use xlink:href="#icon-blocked" transform="translate(32 0)"></use>
		<use xlink:href="#icon-close" transform="translate(64 0)"></use>
		<use xlink:href="#icon-checkmark" transform="translate(96 0)"></use>
		<use xlink:href="#icon-spinner" transform="translate(128 0)"></use>
	</g>
</svg>
